HIERARCHY
ROOT Hips
{
	OFFSET 0.000000 0.000000 0.000000
	CHANNELS 6 Xposition Yposition Zposition Xrotation Yrotation Zrotation
	JOINT LeftUpLeg_virtual
	{
		OFFSET 0.000000 0.000000 0.000000
		CHANNELS 3 Xrotation Yrotation Zrotation
		JOINT LeftUpLeg
		{
			OFFSET 13.026900 -6.336304 -1.092800
			CHANNELS 3 Xrotation Yrotation Zrotation
			JOINT LeftLeg
			{
				OFFSET 0.524474 -46.096886 9.782700
				CHANNELS 3 Xrotation Yrotation Zrotation
				JOINT LeftFoot
				{
					OFFSET -0.524474 -53.427422 -12.948200
					CHANNELS 3 Xrotation Yrotation Zrotation
					JOINT LeftToeBase
					{
						OFFSET 0.192200 -14.009700 16.364100
						CHANNELS 3 Xrotation Yrotation Zrotation
						JOINT LeftToe_End
						{
							OFFSET -1.784700 -0.561700 9.474800
							CHANNELS 3 Xrotation Yrotation Zrotation
							End Site
							{
								OFFSET 0 0 0
							}
						}
					}
				}
			}
		}
	}
	JOINT RightUpLeg_virtual
	{
		OFFSET 0.000000 0.000000 0.000000
		CHANNELS 3 Xrotation Yrotation Zrotation
		JOINT RightUpLeg
		{
			OFFSET -12.883000 -6.336304 -1.092800
			CHANNELS 3 Xrotation Yrotation Zrotation
			JOINT RightLeg
			{
				OFFSET -0.524587 -46.096825 9.782800
				CHANNELS 3 Xrotation Yrotation Zrotation
				JOINT RightFoot
				{
					OFFSET 0.524587 -53.427383 -12.948300
					CHANNELS 3 Xrotation Yrotation Zrotation
					JOINT RightToeBase
					{
						OFFSET -0.192200 -14.009700 16.364100
						CHANNELS 3 Xrotation Yrotation Zrotation
						JOINT RightToe_End
						{
							OFFSET 1.784700 -0.561700 9.474800
							CHANNELS 3 Xrotation Yrotation Zrotation
							End Site
							{
								OFFSET 0 0 0
							}
						}
					}
				}
			}
		}
	}
	JOINT Spine_virtual
	{
		OFFSET 0.000000 0.000000 0.000000
		CHANNELS 3 Xrotation Yrotation Zrotation
		JOINT Spine
		{
			OFFSET 0.072000 7.257294 -0.789700
			CHANNELS 3 Xrotation Yrotation Zrotation
			JOINT Spine1
			{
				OFFSET 0.000000 12.508769 -0.658067
				CHANNELS 3 Xrotation Yrotation Zrotation
				JOINT Spine1_split
				{
					OFFSET 0.000000 12.508769 -0.658067
					CHANNELS 3 Xrotation Yrotation Zrotation
					JOINT Spine2
					{
						OFFSET 0.000000 12.508769 -0.658067
						CHANNELS 3 Xrotation Yrotation Zrotation
						JOINT Neck_virtual
						{
							OFFSET 0.000000 0.000000 0.000000
							CHANNELS 3 Xrotation Yrotation Zrotation
							JOINT Neck
							{
								OFFSET 0.000000 14.033295 7.520400
								CHANNELS 3 Xrotation Yrotation Zrotation
								JOINT Head
								{
									OFFSET 0.000000 8.198502 5.703100
									CHANNELS 3 Xrotation Yrotation Zrotation
									JOINT HeadTop_End
									{
										OFFSET 0.000000 17.760803 13.332701
										CHANNELS 3 Xrotation Yrotation Zrotation
										End Site
										{
											OFFSET 0 0 0
										}
									}
								}
							}
						}
						JOINT LeftShoulder_virtual
						{
							OFFSET 0.000000 0.000000 0.000000
							CHANNELS 3 Xrotation Yrotation Zrotation
							JOINT LeftShoulder
							{
								OFFSET 6.292450 5.785301 -0.669000
								CHANNELS 3 Xrotation Yrotation Zrotation
								JOINT LeftShoulder_split
								{
									OFFSET 6.292450 5.785301 -0.669000
									CHANNELS 3 Xrotation Yrotation Zrotation
									JOINT LeftArm
									{
										OFFSET 13.907140 -6.093903 1.965100
										CHANNELS 3 Xrotation Yrotation Zrotation
										JOINT LeftForeArm
										{
											OFFSET 34.140198 0.000000 0.000000
											CHANNELS 3 Xrotation Yrotation Zrotation
											JOINT LeftHand
											{
												OFFSET 40.960209 0.000000 0.000000
												CHANNELS 3 Xrotation Yrotation Zrotation
												End Site
												{
													OFFSET 0 0 0
												}
											}
										}
									}
								}
							}
						}
						JOINT RightShoulder_virtual
						{
							OFFSET 0.000000 0.000000 0.000000
							CHANNELS 3 Xrotation Yrotation Zrotation
							JOINT RightShoulder
							{
								OFFSET -6.292450 5.785301 -0.669000
								CHANNELS 3 Xrotation Yrotation Zrotation
								JOINT RightShoulder_split
								{
									OFFSET -6.292450 5.785301 -0.669000
									CHANNELS 3 Xrotation Yrotation Zrotation
									JOINT RightArm
									{
										OFFSET -13.907140 -6.093903 1.965100
										CHANNELS 3 Xrotation Yrotation Zrotation
										JOINT RightForeArm
										{
											OFFSET -34.140198 0.000000 0.000000
											CHANNELS 3 Xrotation Yrotation Zrotation
											JOINT RightHand
											{
												OFFSET -40.960209 0.000000 0.000000
												CHANNELS 3 Xrotation Yrotation Zrotation
												End Site
												{
													OFFSET 0 0 0
												}
											}
										}
									}
								}
							}
						}
					}
				}
			}
		}
	}
}
MOTION
Frames: 8
Frame Time: 0.03333333
1.591917 108.633064 -3.575703 0.000000 0.000000 0.000000 3.163648 -10.118755 -1.046026 -38.394703 5.107537 7.545371 27.289051 2.298936 3.707655 4.420894 -0.833846 -4.885023 1.109268 -0.661838 -1.056100 0.000000 0.000000 0.000000 2.869698 -10.480822 -1.017649 -10.541588 -12.398278 -11.992760 24.545654 -9.524873 0.622533 -14.402282 -5.452387 15.520299 -1.493391 0.017805 0.571518 0.000000 0.000000 0.000000 3.693488 -9.211564 -1.463779 21.648127 4.658138 1.548033 1.883153 2.009091 -0.454494 0.471211 -0.291776 0.247061 0.000000 0.000000 0.000000 2.491503 2.051228 -0.164440 -5.456146 16.355988 1.426482 8.000425 48.312394 -21.637168 0.000000 0.000000 0.000000 2.768907 2.333571 -0.411444 2.143623 -34.986148 5.729039 0.268654 0.577081 -4.599843 -25.059344 -15.809060 -66.712794 -0.323894 -45.733714 -7.845755 0.000000 0.000000 0.000000 3.295251 2.112259 -0.365299 8.572370 21.306005 -10.288135 -1.055713 3.634678 0.420772 -42.672850 14.652456 82.111195 -0.687711 53.162627 2.885345 0.000000 0.000000 0.000000 
1.752558 108.689079 -2.925922 0.000000 0.000000 0.000000 3.229124 -9.362046 -1.156393 -38.441466 5.247168 7.196591 27.486327 1.995103 3.782471 4.097196 -0.883656 -4.537951 1.077966 -0.676911 -1.033759 0.000000 0.000000 0.000000 2.914946 -9.796788 -1.126095 -9.695705 -12.364644 -12.037002 24.006658 -10.075957 0.664028 -14.418208 -5.647587 16.136090 -1.467396 -0.029851 0.625134 0.000000 0.000000 0.000000 3.814071 -8.481795 -1.562374 21.444417 4.721030 1.179297 1.828885 2.105692 -0.638552 0.471389 -0.274053 0.218785 0.000000 0.000000 0.000000 2.458467 2.145464 -0.378698 -5.500999 16.218250 1.741106 7.071172 47.960157 -20.729356 0.000000 0.000000 0.000000 2.772819 2.418195 -0.667547 2.003134 -35.533188 5.687266 0.045911 0.532062 -4.891619 -24.657538 -15.754053 -66.537142 -0.260800 -45.521623 -6.735223 0.000000 0.000000 0.000000 3.305075 2.249336 -0.603787 8.415597 20.437135 -10.014770 -0.810683 3.772054 0.381736 -42.982316 15.231499 83.058297 -0.695263 52.597883 2.471186 0.000000 0.000000 0.000000 
1.889467 108.725601 -2.281712 0.000000 0.000000 0.000000 3.316065 -8.709529 -1.213409 -38.485223 5.332452 6.867043 27.741334 1.760300 3.845644 3.754565 -0.912994 -4.247146 1.050608 -0.691133 -1.014042 0.000000 0.000000 0.000000 2.977973 -9.232831 -1.177505 -8.986756 -12.281877 -12.102901 23.579053 -10.539657 0.680865 -14.451939 -5.822236 16.742971 -1.469606 -0.069239 0.669994 0.000000 0.000000 0.000000 3.960120 -7.867487 -1.599238 21.239327 4.730953 0.777389 1.784484 2.183491 -0.816935 0.482619 -0.246928 0.210205 0.000000 0.000000 0.000000 2.437091 2.222920 -0.591401 -5.597771 15.971953 2.098008 5.864856 47.423885 -19.515474 0.000000 0.000000 0.000000 2.777012 2.486197 -0.916874 1.863262 -36.045405 5.655736 -0.139236 0.519761 -5.118585 -24.056082 -15.850718 -66.314361 -0.236904 -45.475089 -5.664059 0.000000 0.000000 0.000000 3.311698 2.367216 -0.830456 8.303563 19.816180 -9.814271 -0.649364 3.860333 0.394599 -43.198119 15.597678 83.866848 -0.778481 52.212056 2.205243 0.000000 0.000000 0.000000 
2.004928 108.738411 -1.667271 0.000000 0.000000 0.000000 3.429379 -8.154536 -1.229252 -38.545954 5.338998 6.552265 28.060671 1.580623 3.903897 3.409328 -0.929573 -4.026805 1.036859 -0.703628 -0.999757 0.000000 0.000000 0.000000 3.067573 -8.767576 -1.185658 -8.392145 -12.152760 -12.176247 23.227756 -10.923978 0.670510 -14.540354 -5.985273 17.314623 -1.480362 -0.098069 0.704159 0.000000 0.000000 0.000000 4.130985 -7.370305 -1.597025 21.039541 4.681383 0.351524 1.746768 2.239489 -0.985305 0.468777 -0.194323 0.215629 0.000000 0.000000 0.000000 2.416512 2.280549 -0.799790 -5.756946 15.643957 2.512049 4.498782 46.781496 -18.042380 0.000000 0.000000 0.000000 2.781065 2.535353 -1.150073 1.741848 -36.546604 5.675810 -0.285155 0.543030 -5.282513 -23.281301 -16.079724 -66.066419 -0.250340 -45.578009 -4.648168 0.000000 0.000000 0.000000 3.315678 2.462252 -1.037724 8.229050 19.437386 -9.681313 -0.551617 3.904651 0.418333 -43.282321 15.740408 84.502786 -0.901608 51.942704 2.051569 0.000000 0.000000 0.000000 
2.110835 108.735275 -1.073647 0.000000 0.000000 0.000000 3.578124 -7.694091 -1.218377 -38.630286 5.257650 6.250406 28.435444 1.450661 3.962447 3.063294 -0.931415 -3.879136 1.050198 -0.713501 -0.994602 0.000000 0.000000 0.000000 3.194120 -8.388557 -1.164388 -7.894556 -11.989599 -12.243522 22.935067 -11.253211 0.638692 -14.686613 -6.150083 17.810958 -1.458402 -0.114105 0.726080 0.000000 0.000000 0.000000 4.321497 -6.997287 -1.571031 20.856486 4.575039 -0.083553 1.716128 2.269281 -1.140117 0.449010 -0.118724 0.227257 0.000000 0.000000 0.000000 2.393258 2.317134 -0.999284 -5.981364 15.265183 3.003185 3.083585 46.112175 -16.385445 0.000000 0.000000 0.000000 2.785398 2.559636 -1.361416 1.646317 -37.061423 5.758410 -0.404070 0.659647 -5.402804 -22.393142 -16.410296 -65.829486 -0.297750 -45.770235 -3.689642 0.000000 0.000000 0.000000 3.317107 2.531229 -1.225866 8.186702 19.273836 -9.617349 -0.508560 3.920702 0.426558 -43.242098 15.659329 84.944979 -1.039618 51.774825 1.975195 0.000000 0.000000 0.000000 
2.207712 108.722458 -0.521526 0.000000 0.000000 0.000000 3.757547 -7.318148 -1.193742 -38.728163 5.106949 5.968815 28.828538 1.371724 4.020324 2.712338 -0.918697 -3.796916 1.087634 -0.720276 -0.996479 0.000000 0.000000 0.000000 3.352479 -8.084585 -1.127262 -7.496639 -11.816535 -12.303588 22.687561 -11.541077 0.596184 -14.855842 -6.316453 18.224451 -1.391194 -0.115739 0.731823 0.000000 0.000000 0.000000 4.520785 -6.739447 -1.530913 20.702539 4.419861 -0.511382 1.684329 2.270753 -1.281200 0.450410 -0.034164 0.227594 0.000000 0.000000 0.000000 2.364855 2.330625 -1.187935 -6.268242 14.864997 3.561646 1.711564 45.480860 -14.643149 0.000000 0.000000 0.000000 2.788930 2.557898 -1.551161 1.578873 -37.610573 5.887828 -0.559616 0.846280 -5.494729 -21.413545 -16.814534 -65.609534 -0.376813 -45.986745 -2.786205 0.000000 0.000000 0.000000 3.317269 2.569471 -1.395579 8.169057 19.285502 -9.618406 -0.496636 3.984690 0.372417 -43.103056 15.417783 85.232148 -1.169276 51.719920 1.947276 0.000000 0.000000 0.000000 
2.293792 108.709915 -0.010967 0.000000 0.000000 0.000000 3.961549 -7.027022 -1.160491 -38.826576 4.919785 5.719381 29.195094 1.340398 4.072697 2.370445 -0.897992 -3.776771 1.126153 -0.723948 -0.999937 0.000000 0.000000 0.000000 3.530617 -7.842279 -1.082414 -7.207453 -11.659358 -12.360984 22.467077 -11.783406 0.549942 -14.993566 -6.472597 18.588961 -1.314186 -0.104115 0.717915 0.000000 0.000000 0.000000 4.724310 -6.592762 -1.479755 20.586690 4.230412 -0.917456 1.646289 2.246777 -1.409079 0.433261 0.040058 0.208283 0.000000 0.000000 0.000000 2.337606 2.324389 -1.363977 -6.606804 14.478686 4.167242 0.426929 44.943191 -12.927332 0.000000 0.000000 0.000000 2.795040 2.532035 -1.717975 1.535365 -38.202303 6.041888 -0.763914 1.092522 -5.581463 -20.401567 -17.232434 -65.434408 -0.506742 -46.157968 -1.943573 0.000000 0.000000 0.000000 3.317100 2.578703 -1.548049 8.172437 19.430508 -9.678589 -0.481685 4.120771 0.282906 -42.896255 15.082454 85.415668 -1.267265 51.760123 1.944514 0.000000 0.000000 0.000000 
2.370000 108.704849 0.441261 0.000000 0.000000 0.000000 4.177240 -6.810248 -1.118400 -38.926092 4.729184 5.511131 29.506386 1.347163 4.114371 2.066541 -0.874367 -3.814788 1.144602 -0.725749 -0.999885 0.000000 0.000000 0.000000 3.724121 -7.658733 -1.030170 -7.026836 -11.531856 -12.424124 22.265985 -11.974296 0.504176 -15.070536 -6.604325 18.922558 -1.263488 -0.081485 0.685107 0.000000 0.000000 0.000000 4.924017 -6.550096 -1.410040 20.511299 4.023963 -1.290401 1.602572 2.203917 -1.522982 0.426226 0.085977 0.193535 0.000000 0.000000 0.000000 2.316652 2.305673 -1.524742 -6.983036 14.129210 4.770191 -0.741738 44.530579 -11.352264 0.000000 0.000000 0.000000 2.800589 2.491983 -1.863762 1.503814 -38.825599 6.179229 -1.014158 1.364106 -5.659263 -19.418769 -17.631070 -65.321095 -0.664657 -46.235490 -1.147929 0.000000 0.000000 0.000000 3.319162 2.567465 -1.684586 8.189068 19.660090 -9.784245 -0.426992 4.282957 0.188711 -42.644382 14.719898 85.535832 -1.325573 51.883852 1.948686 0.000000 0.000000 0.000000 
